# Blender 3.5.0
# www.blender.org
mtllib Lilypad.mtl
g Lilypad_Circle.004
v -0.000014 0.009538 -0.996995
v -0.381558 0.009548 -0.921129
v -0.705032 0.009557 -0.705019
v -0.919708 0.008934 -0.384354
v -0.563217 0.009779 -0.005362
v -0.919731 0.008959 0.384272
v -0.705032 0.009557 0.705019
v -0.381558 0.009548 0.921129
v -0.000014 0.009538 0.996995
v 0.381508 0.009527 0.921077
v 0.704929 0.009517 0.704944
v 0.921024 0.009511 0.381507
v 0.996904 0.009509 -0.000000
v 0.921024 0.009511 -0.381507
v 0.704929 0.009517 -0.704944
v 0.381508 0.009527 -0.921077
v 0.000000 0.010000 -0.000000
v -0.002794 0.053478 -1.068693
v -0.411789 0.053511 -0.987400
v -0.758554 0.053538 -0.755759
v -0.989644 0.053405 -0.410847
v -0.602793 0.051975 -0.005864
v -0.989651 0.053410 0.410822
v -0.758554 0.053538 0.755759
v -0.411789 0.053511 0.987400
v -0.002794 0.053478 1.068693
v 0.406153 0.053443 0.987285
v 0.752804 0.053414 0.755597
v 0.984408 0.053393 0.408912
v 1.065732 0.053386 -0.000000
v 0.984408 0.053393 -0.408912
v 0.752804 0.053414 -0.755597
v 0.406153 0.053443 -0.987285
v 0.000000 0.000000 -1.000000
v -0.382683 0.000000 -0.923880
v -0.707107 0.000000 -0.707107
v -0.923880 0.000000 -0.382683
v -0.565310 0.000000 -0.005355
v -0.923880 0.000000 0.382683
v -0.707107 0.000000 0.707107
v -0.382683 0.000000 0.923880
v 0.000000 0.000000 1.000000
v 0.382683 0.000000 0.923880
v 0.707107 0.000000 0.707107
v 0.923880 0.000000 0.382683
v 1.000000 0.000000 -0.000000
v 0.923880 0.000000 -0.382683
v 0.707107 0.000000 -0.707107
v 0.382683 0.000000 -0.923880
v 0.000000 0.000000 -0.000000
v -0.002812 0.044933 -1.073888
v -0.413771 0.044933 -0.992143
v -0.762166 0.044933 -0.759353
v -0.994955 0.044933 -0.410959
v -0.609892 0.044933 -0.005750
v -0.994955 0.044933 0.410959
v -0.762166 0.044933 0.759353
v -0.413771 0.044933 0.992143
v -0.002812 0.044933 1.073888
v 0.408147 0.044933 0.992143
v 0.756541 0.044933 0.759353
v 0.989331 0.044933 0.410959
v 1.071076 0.044933 -0.000000
v 0.989331 0.044933 -0.410959
v 0.756541 0.044933 -0.759353
v 0.408147 0.044933 -0.992143
vn 0.1131 0.9543 0.2765
vn 0.2084 0.9551 0.2108
vn -0.0001 1.0000 -0.0000
vn 0.4194 0.8928 -0.1643
vn 0.2139 0.9769 -0.0006
vn 0.4169 0.8955 0.1561
vn 0.2084 0.9551 -0.2107
vn 0.1131 0.9543 -0.2765
vn -0.0015 0.9533 -0.3021
vn -0.1182 0.9522 -0.2818
vn -0.2190 0.9512 -0.2175
vn -0.2872 0.9505 -0.1183
vn -0.3114 0.9503 -0.0000
vn -0.2872 0.9505 0.1183
vn -0.2190 0.9512 0.2175
vn -0.1182 0.9522 0.2818
vn -0.0015 0.9533 0.3021
vn -0.2331 0.9441 -0.2331
vn -0.4150 0.9069 0.0728
vn 0.2154 0.9527 0.2142
vn 0.2777 0.9538 0.1145
vn 0.3049 0.9524 -0.0075
vn 0.2991 0.9542 -0.0000
vn -0.4162 0.9066 -0.0697
vn 0.2777 0.9538 -0.1145
vn -0.2331 0.9441 0.2331
vn 0.2154 0.9527 -0.2142
vn -0.1218 0.9472 0.2967
vn 0.1193 0.9511 -0.2850
vn 0.0012 0.9491 0.3149
vn 0.0012 0.9491 -0.3149
vn -0.1218 0.9472 -0.2967
vn 0.1193 0.9511 0.2850
vn -0.1125 -0.9548 -0.2750
vn -0.0000 -1.0000 -0.0000
vn -0.2074 -0.9557 -0.2088
vn -0.4171 -0.8934 0.1671
vn -0.2093 -0.9779 0.0008
vn -0.4149 -0.8959 -0.1589
vn -0.2074 -0.9557 0.2088
vn -0.1125 -0.9548 0.2750
vn 0.0014 -0.9538 0.3005
vn 0.1176 -0.9527 0.2803
vn 0.2178 -0.9517 0.2163
vn 0.2856 -0.9511 0.1177
vn 0.3096 -0.9509 -0.0000
vn 0.2856 -0.9511 -0.1177
vn 0.2178 -0.9517 -0.2163
vn 0.1176 -0.9527 -0.2803
vn 0.0014 -0.9538 -0.3005
vn -0.9905 -0.1355 0.0244
vn -0.6886 -0.2337 -0.6864
vn 0.9041 -0.2047 0.3752
vn 0.6908 -0.2080 0.6925
vn -0.9975 -0.0698 0.0097
vn 0.9791 -0.2035 -0.0000
vn -0.9901 -0.1387 -0.0194
vn 0.9041 -0.2047 -0.3752
vn -0.6886 -0.2337 0.6864
vn 0.6908 -0.2080 -0.6925
vn -0.3742 -0.2244 0.8998
vn 0.3725 -0.2130 -0.9032
vn -0.0016 -0.2188 0.9758
vn -0.3742 -0.2244 -0.8998
vn -0.0016 -0.2188 -0.9758
vn 0.3725 -0.2130 0.9032
vt 0.000000 0.000000
vt 0.000000 0.000000
vt 0.000000 0.000000
vt 0.000000 0.000000
vt 0.000000 0.000000
vt 0.000000 0.000000
vt 0.000000 0.000000
vt 0.000000 0.000000
vt 0.000000 0.000000
vt 0.000000 0.000000
vt 0.000000 0.000000
vt 0.000000 0.000000
vt 0.000000 0.000000
vt 0.000000 0.000000
vt 0.000000 0.000000
vt 0.000000 0.000000
vt 0.000000 0.000000
vt 0.000000 0.000000
vt 0.000000 0.000000
vt 0.000000 0.000000
vt 0.000000 0.000000
vt 0.000000 0.000000
vt 0.000000 0.000000
vt 0.000000 0.000000
vt 0.000000 0.000000
vt 0.000000 0.000000
vt 0.000000 0.000000
vt 0.000000 0.000000
vt 0.000000 0.000000
vt 0.000000 0.000000
vt 0.000000 0.000000
vt 0.000000 0.000000
vt 0.000000 0.000000
vt 0.000000 0.000000
vt 0.000000 0.000000
vt 0.000000 0.000000
vt 0.000000 0.000000
vt 0.000000 0.000000
vt 0.000000 0.000000
vt 0.000000 0.000000
vt 0.000000 0.000000
vt 0.000000 0.000000
vt 0.000000 0.000000
vt 0.000000 0.000000
vt 0.000000 0.000000
vt 0.000000 0.000000
vt 0.000000 0.000000
vt 0.000000 0.000000
vt 0.000000 0.000000
vt 0.000000 0.000000
vt 0.000000 0.000000
vt 0.000000 0.000000
vt 0.000000 0.000000
vt 0.000000 0.000000
vt 0.000000 0.000000
vt 0.000000 0.000000
vt 0.000000 0.000000
vt 0.000000 0.000000
vt 0.000000 0.000000
vt 0.000000 0.000000
vt 0.000000 0.000000
vt 0.000000 0.000000
vt 0.000000 0.000000
vt 0.000000 0.000000
vt 0.000000 0.000000
vt 0.000000 0.000000
s 1
usemtl Lilypad
f 2/2/1 3/3/2 17/17/3
f 3/3/2 4/4/4 17/17/3
f 4/4/4 5/5/5 17/17/3
f 5/5/5 6/6/6 17/17/3
f 6/6/6 7/7/7 17/17/3
f 7/7/7 8/8/8 17/17/3
f 8/8/8 9/9/9 17/17/3
f 9/9/9 10/10/10 17/17/3
f 10/10/10 11/11/11 17/17/3
f 11/11/11 12/12/12 17/17/3
f 12/12/12 13/13/13 17/17/3
f 13/13/13 14/14/14 17/17/3
f 14/14/14 15/15/15 17/17/3
f 15/15/15 16/16/16 17/17/3
f 16/16/16 1/1/17 17/17/3
f 1/1/17 2/2/1 17/17/3
f 4/4/4 3/3/2 20/20/18 21/21/19
f 12/12/12 11/11/11 28/28/20 29/29/21
f 5/5/5 4/4/4 21/21/19 22/22/22
f 13/13/13 12/12/12 29/29/21 30/30/23
f 6/6/6 5/5/5 22/22/22 23/23/24
f 14/14/14 13/13/13 30/30/23 31/31/25
f 7/7/7 6/6/6 23/23/24 24/24/26
f 15/15/15 14/14/14 31/31/25 32/32/27
f 8/8/8 7/7/7 24/24/26 25/25/28
f 16/16/16 15/15/15 32/32/27 33/33/29
f 9/9/9 8/8/8 25/25/28 26/26/30
f 2/2/1 1/1/17 18/18/31 19/19/32
f 1/1/17 16/16/16 33/33/29 18/18/31
f 10/10/10 9/9/9 26/26/30 27/27/33
f 3/3/2 2/2/1 19/19/32 20/20/18
f 11/11/11 10/10/10 27/27/33 28/28/20
f 35/35/34 50/50/35 36/36/36
f 36/36/36 50/50/35 37/37/37
f 37/37/37 50/50/35 38/38/38
f 38/38/38 50/50/35 39/39/39
f 39/39/39 50/50/35 40/40/40
f 40/40/40 50/50/35 41/41/41
f 41/41/41 50/50/35 42/42/42
f 42/42/42 50/50/35 43/43/43
f 43/43/43 50/50/35 44/44/44
f 44/44/44 50/50/35 45/45/45
f 45/45/45 50/50/35 46/46/46
f 46/46/46 50/50/35 47/47/47
f 47/47/47 50/50/35 48/48/48
f 48/48/48 50/50/35 49/49/49
f 49/49/49 50/50/35 34/34/50
f 34/34/50 50/50/35 35/35/34
f 37/37/37 54/54/51 53/53/52 36/36/36
f 45/45/45 62/62/53 61/61/54 44/44/44
f 38/38/38 55/55/55 54/54/51 37/37/37
f 46/46/46 63/63/56 62/62/53 45/45/45
f 39/39/39 56/56/57 55/55/55 38/38/38
f 47/47/47 64/64/58 63/63/56 46/46/46
f 40/40/40 57/57/59 56/56/57 39/39/39
f 48/48/48 65/65/60 64/64/58 47/47/47
f 41/41/41 58/58/61 57/57/59 40/40/40
f 49/49/49 66/66/62 65/65/60 48/48/48
f 42/42/42 59/59/63 58/58/61 41/41/41
f 35/35/34 52/52/64 51/51/65 34/34/50
f 34/34/50 51/51/65 66/66/62 49/49/49
f 43/43/43 60/60/66 59/59/63 42/42/42
f 36/36/36 53/53/52 52/52/64 35/35/34
f 44/44/44 61/61/54 60/60/66 43/43/43
f 19/19/32 18/18/31 51/51/65 52/52/64
f 20/20/18 19/19/32 52/52/64 53/53/52
f 21/21/19 20/20/18 53/53/52 54/54/51
f 22/22/22 21/21/19 54/54/51 55/55/55
f 23/23/24 22/22/22 55/55/55 56/56/57
f 24/24/26 23/23/24 56/56/57 57/57/59
f 25/25/28 24/24/26 57/57/59 58/58/61
f 26/26/30 25/25/28 58/58/61 59/59/63
f 27/27/33 26/26/30 59/59/63 60/60/66
f 28/28/20 27/27/33 60/60/66 61/61/54
f 29/29/21 28/28/20 61/61/54 62/62/53
f 30/30/23 29/29/21 62/62/53 63/63/56
f 31/31/25 30/30/23 63/63/56 64/64/58
f 32/32/27 31/31/25 64/64/58 65/65/60
f 33/33/29 32/32/27 65/65/60 66/66/62
f 18/18/31 33/33/29 66/66/62 51/51/65
